# xmcd CD database file
#
# Track frame offsets:
#	150
#	20069
#	37493
#	57700
#	76716
#	98075
#	116070
#	134044
#	150826
#	168433
#
# Disc length: 2683 seconds
#
# Revision: 1
# Processed by: cddbd v1.5.2PL0 Copyright (c) Steve Scherf et al.
# Submitted via: CDex 1.70beta2
#
DISCID=860a790a
DTITLE=李泉 - 2046
DYEAR=2003
DGENRE=Pop
TTITLE0=花花大世界
TTITLE1=雪白血紅
TTITLE2=流浪狗
TTITLE3=這個殺手不太冷
TTITLE4=Spring Ecstasy
TTITLE5=2046
TTITLE6=愛是有故事的旅行
TTITLE7=城市的味道
TTITLE8=我的人哪，你在哪兒啊!
TTITLE9=德樂 (演奏版)
EXTD=YEAR: 2003
EXTT0=
EXTT1=
EXTT2=
EXTT3=
EXTT4=
EXTT5=
EXTT6=
EXTT7=
EXTT8=
EXTT9=
PLAYORDER=
